HIERARCHY
ROOT Hips
{
  OFFSET 279.157 85.6768 304.565
  CHANNELS 6 Xposition Yposition Zposition Zrotation Xrotation Yrotation
  JOINT LeftUpLeg
  {
    OFFSET 8.64259 1.95398 -2.38835
    CHANNELS 3 Zrotation Xrotation Yrotation
    JOINT LeftLeg
    {
      OFFSET 43.7702 0 0
      CHANNELS 3 Zrotation Xrotation Yrotation
      JOINT LeftFoot
      {
        OFFSET 40.6238 0 0
        CHANNELS 3 Zrotation Xrotation Yrotation
        JOINT LeftToeBase
        {
          OFFSET 12.7242 0 0
          CHANNELS 3 Zrotation Xrotation Yrotation
          End Site
          {
            OFFSET 0 0 0
          }
        }
      }
    }
  }
  JOINT RightUpLeg
  {
    OFFSET -8.2249 1.95398 -2.59336
    CHANNELS 3 Zrotation Xrotation Yrotation
    JOINT RightLeg
    {
      OFFSET 43.5653 0 0
      CHANNELS 3 Zrotation Xrotation Yrotation
      JOINT RightFoot
      {
        OFFSET 40.6238 0 0
        CHANNELS 3 Zrotation Xrotation Yrotation
        JOINT RightToeBase
        {
          OFFSET 12.7242 0 0
          CHANNELS 3 Zrotation Xrotation Yrotation
          End Site
          {
            OFFSET 0 0 0
          }
        }
      }
    }
  }
  JOINT Spine
  {
    OFFSET 0.165834 0.87714 6.61349
    CHANNELS 3 Zrotation Xrotation Yrotation
    JOINT Spine1
    {
      OFFSET 7.38963 1.71661e-005 0
      CHANNELS 3 Zrotation Xrotation Yrotation
      JOINT Spine2
      {
        OFFSET 11.9445 1.14441e-005 0
        CHANNELS 3 Zrotation Xrotation Yrotation
        JOINT Spine3
        {
          OFFSET 14.7254 4.19617e-005 0
          CHANNELS 3 Zrotation Xrotation Yrotation
          JOINT Spine4
          {
            OFFSET 10.9679 0 0
            CHANNELS 3 Zrotation Xrotation Yrotation
            JOINT RightShoulder
            {
              OFFSET 2.46616 -1.6653 3.69651
              CHANNELS 3 Zrotation Xrotation Yrotation
              JOINT RightArm
              {
                OFFSET 13.0012 0 0
                CHANNELS 3 Zrotation Xrotation Yrotation
                JOINT RightForeArm
                {
                  OFFSET 28.7848 1.52588e-005 0
                  CHANNELS 3 Zrotation Xrotation Yrotation
                  JOINT RightHand
                  {
                    OFFSET 26.5688 1.52588e-005 0
                    CHANNELS 3 Zrotation Xrotation Yrotation
                    End Site
                    {
                      OFFSET 0 0 0
                    }
                  }
                }
              }
            }
            JOINT LeftShoulder
            {
              OFFSET 2.38034 -1.29275 -3.7523
              CHANNELS 3 Zrotation Xrotation Yrotation
              JOINT LeftArm
              {
                OFFSET 16.3182 6.10351e-005 0
                CHANNELS 3 Zrotation Xrotation Yrotation
                JOINT LeftForeArm
                {
                  OFFSET 27.0901 0 0
                  CHANNELS 3 Zrotation Xrotation Yrotation
                  JOINT LeftHand
                  {
                    OFFSET 24.5451 1.52588e-005 0
                    CHANNELS 3 Zrotation Xrotation Yrotation
                    End Site
                    {
                      OFFSET 0 0 0
                    }
                  }
                }
              }
            }
            JOINT Neck
            {
              OFFSET 5.0226 -0.0266342 0
              CHANNELS 3 Zrotation Xrotation Yrotation
              JOINT Head
              {
                OFFSET 6.69364 2.86102e-005 0
                CHANNELS 3 Zrotation Xrotation Yrotation
                End Site
                {
                  OFFSET 0 0 0
                }
              }
            }
          }
        }
      }
    }
  }
}
MOTION
Frames:	9
Frame Time:	0.0416667
-85.1419 89.619 -79.0054 -113.892 42.6412 -77.1588 -172.536 24.0113 85.6663 -58.5652 16.3969 -0.601129 69.6448 8.18552 6.46442 24.0569 -1.76213 -2.77305 174.124 30.7932 87.3745 -94.204 -7.67661 -3.07385 66.2125 -5.58044 -5.94882 16.1568 2.06634 9.36644 0.0661968 9.83254 -89.4875 7.20618 0.353073 0.994467 -4.4651 0.39651 0.977967 -26.9972 0.0378973 1.05459 -6.98456 0.0378819 1.05459 94.487 -17.9298 -101.48 49.6365 -0.765452 12.0785 -27.0344 -31.7445 -51.1574 -26.6951 -0.685028 -12.7894 -88.4151 -35.8632 77.9848 -4.69042 1.43162 -10.3944 53.1242 1.8856 -85.9405 10.7254 -1.86175 -19.7079 2.10946 1.79365 -4.39571 -3.51781 2.43747 1.87116 
-88.5406 89.9987 -82.5461 -111.557 43.5733 -77.7155 -170.434 25.2095 87.2303 -62.5144 18.6066 -1.09171 68.6766 7.88713 8.0758 27.3465 -0.267732 -2.14426 173.097 38.7233 89.9053 -86.5609 -4.68403 -1.83873 64.8685 -4.47038 -6.24285 15.6777 1.92425 10.4492 -0.172683 9.97663 -89.6241 6.92048 -0.183898 0.748773 -4.75066 -0.150755 0.756137 -27.2845 -0.400433 0.658895 -7.27184 -0.400413 0.658893 94.6783 -14.2083 -102.487 47.0586 0.621647 17.0446 -30.0817 -28.4114 -56.7601 -29.6502 -0.48564 -12.847 -87.2652 -29.2353 78.34 -2.92084 -3.71056 -18.7128 53.4794 1.04371 -87.9025 10.7364 -1.68285 -18.1663 0.363283 3.23861 -1.85658 -0.691504 3.4848 2.18694 
-91.4958 90.645 -85.6403 -109.433 41.5205 -78.8654 -168.539 29.0099 88.4298 -67.0827 20.9478 -1.34064 58.8546 0.213069 7.31743 30.8049 2.68057 -7.88778 169.132 42.0975 90.4293 -73.4618 3.20728 1.13897 63.0637 -2.70211 -5.93014 13.7606 2.78477 9.04366 -0.627764 10.2808 -89.7308 6.31486 -1.14011 0.567674 -5.35578 -1.11403 0.6173 -27.8944 -1.25801 0.198739 -7.88181 -1.25802 0.198732 93.635 -12.5857 -106.105 41.0098 6.60973 22.2834 -29.8527 -23.1494 -62.3921 -32.7363 -0.221411 -12.0809 -86.1183 -22.5738 78.754 -1.09126 -10.1465 -25.6239 53.6431 2.19526 -87.8371 12.2489 -1.81624 -17.7687 -1.32332 4.36693 -0.640692 2.81029 4.499 2.56134 
-94.7325 90.6384 -89.0619 -108.467 37.7803 -79.7271 -166.284 33.8256 89.3845 -73.8301 23.4242 -1.49839 50.4127 -6.18936 4.98738 14.1846 -3.75706 -11.2937 166.04 41.3386 88.3066 -58.8435 7.10527 4.9832 60.2813 -0.136071 -3.63168 13.6087 3.27869 7.37403 -1.0638 10.8122 -89.9121 5.25119 -2.08905 0.213056 -6.41812 -2.07764 0.304823 -28.9664 -2.05646 -0.424915 -8.95378 -2.05646 -0.424922 93.3022 -10.6727 -108.085 36.1145 13.6662 23.1998 -30.1693 -20.5923 -68.4427 -38.5379 -0.8549 -8.70163 -84.9734 -15.3399 78.9952 -5.10584 -15.1056 -33.8183 51.7933 7.43718 -83.5601 13.2624 -2.04174 -18.5079 0.475919 4.6449 -0.971484 2.21686 4.87998 4.58673 
-98.2962 89.9258 -93.0124 -106.488 35.5547 -80.9158 -161.523 39.139 89.6019 -79.2864 15.2667 -2.4944 51.1548 -5.88909 5.99177 16.3538 -3.11765 -10.2263 164.731 39.4664 86.3748 -43.6767 2.81886 7.63487 57.2029 1.68559 -0.888515 15.6811 2.12636 9.62844 -1.1963 11.0987 -90.1452 4.67286 -2.44973 -0.254313 -6.99577 -2.45853 -0.146202 -29.5471 -2.25998 -0.979167 -9.53445 -2.25997 -0.97917 94.0933 -8.8244 -106.896 35.3936 16.0489 16.2024 -32.757 -20.7561 -72.904 -49.5043 -1.82737 -6.28431 -85.4124 -12.6799 76.9267 -10.0896 -18.1103 -42.464 53.151 15.6372 -77.4731 12.7652 -1.7757 -17.0021 -0.297651 4.60669 -0.516739 3.35542 4.84729 5.13357 
-101.641 88.7327 -97.3276 -105.039 34.7129 -82.0984 -155.196 43.9842 89.0066 -81.4068 11.3967 -4.30708 57.718 -1.22105 6.65996 15.691 -4.0111 -8.53196 165.067 37.5984 85.2077 -33.8104 2.35289 7.74295 57.1208 1.17604 -0.945177 16.5551 1.97235 9.3244 -1.21406 11.2774 -90.1936 4.31392 -2.50437 -0.359971 -7.35464 -2.51779 -0.249339 -29.9061 -2.28034 -1.09636 -9.89347 -2.28035 -1.09636 95.3329 -9.60913 -102.796 38.1473 11.8057 0.347821 -33.0937 -19.1176 -73.9143 -51.9217 -3.21552 -2.9748 -86.301 -14.305 75.3525 -15.3633 -17.2578 -51.741 57.4691 25.7972 -72.8054 11.592 -1.35309 -14.634 0.0085682 4.42743 -0.426805 2.00345 4.57555 4.41951 
-104.903 86.6556 -101.794 -105.026 32.9859 -83.0565 -150.712 47.7968 87.9583 -79.9018 18.0255 -6.22643 58.7075 -0.293751 5.6287 16.5925 -3.7416 -8.10821 165.492 36.9851 82.6746 -34.476 6.54153 7.31097 57.0562 1.39041 -1.10892 16.0944 2.43151 7.84703 -1.23512 11.5967 -90.0469 3.67891 -2.48643 -0.0915665 -7.98967 -2.48804 0.0180168 -30.5424 -2.34391 -0.835028 -10.5297 -2.34389 -0.835022 94.9954 -11.8239 -102.727 39.4169 8.89035 -15.5797 -37.1416 -21.8627 -72.4216 -48.6104 -3.9558 -1.65553 -87.5207 -15.5451 72.9232 -19.1938 -15.0238 -59.0217 59.9834 36.5608 -68.2206 11.0101 -0.869333 -11.0096 1.05078 3.58531 -3.15046 2.01129 4.20197 5.70742 
-108.166 83.5155 -106.36 -105.3 32.0856 -84.081 -145.404 51.4698 86.1255 -76.1606 24.4525 -8.93308 56.2406 -2.0625 3.69505 17.8487 -2.99345 -8.59181 163.946 43.6964 80.3077 -49.374 1.71096 9.24843 60.4048 0.803961 -4.47955 1.9741 6.96657 6.8687 -1.09877 11.8057 -89.9057 3.26274 -2.15745 0.17076 -8.40644 -2.14783 0.265591 -30.9555 -2.10898 -0.485833 -10.9429 -2.10899 -0.485842 94.5696 -12.135 -103.75 39.8233 5.75808 -30.215 -37.2797 -29.147 -63.6461 -48.8703 -5.68858 1.96623 -88.965 -18.196 70.7386 -19.2496 -11.2744 -64.2561 56.0533 45.9356 -60.7478 11.6582 -0.628909 -8.799 1.33142 2.63057 -3.71765 2.62196 3.35123 5.09332 
-111 79.8399 -110.056 -106.968 32.6718 -84.1494 -140.471 53.5398 84.4172 -71.644 25.3593 -11.7132 58.3668 -0.546645 2.18666 14.4078 -5.50724 -6.13421 159.172 50.7006 81.5846 -65.2562 -2.74943 7.43343 63.1129 -2.0124 -6.93543 9.85158 4.39509 7.27641 -0.844405 12.1156 -89.7815 2.64465 -1.60086 0.404297 -9.02542 -1.58153 0.474372 -31.5685 -1.64835 -0.0956483 -11.5558 -1.64835 -0.0956629 93.9606 -11.3461 -105.851 37.9527 3.20103 -44.1094 -29.0908 -39.6287 -46.3882 -50.7471 -6.62352 3.23317 -90.4857 -21.9891 69.1572 -17.9143 -7.99372 -66.4779 52.6661 50.2876 -56.8481 9.23684 -0.171928 -5.1706 2.89491 1.81402 -3.68431 1.8611 2.53409 4.39243 
